<svg width="42" height="42" xmlns="http://www.w3.org/2000/svg">

 <g>
  <title>background</title>
  <rect fill="none" id="canvas_background" height="402" width="582" y="-1" x="-1"/>
 </g>
 <g>
  <title>Layer 1</title>
  <polygon stroke="null" id="svg_2" points="28.669,24.15 28.669,17.388 6.369,17.388 6.369,24.15 11.587,24.15 12.436,24.15  " fill="none"/>
  <rect stroke="null" id="svg_3" height="6.339" width="22.3" fill="none" y="9.85" x="6.369"/>
  <rect stroke="null" id="svg_4" height="6.301" width="22.301" fill="#EFF9FE" y="9.897664" x="13.524095"/>
  <path stroke="null" id="svg_6" d="m38.594,20.995782c-0.588,-0.537 -1.375,-0.806 -2.362,-0.806c-0.932,0.001 -1.683,0.251 -2.252,0.751c-0.564,0.501 -0.904,1.222 -1.02,2.162l1.275,0.151c0.109,-0.702 0.342,-1.219 0.695,-1.549c0.354,-0.331 0.793,-0.496 1.322,-0.496c0.545,0 1.007,0.184 1.383,0.551c0.377,0.363 0.565,0.785 0.565,1.268c0,0.266 -0.064,0.512 -0.192,0.736c-0.129,0.226 -0.409,0.528 -0.841,0.909c-0.427,0.377 -0.723,0.663 -0.888,0.86c-0.226,0.271 -0.389,0.54 -0.489,0.806c-0.138,0.354 -0.206,0.774 -0.206,1.261c0,0.083 0.002,0.206 0.006,0.372l1.191,0c0.01,-0.496 0.044,-0.854 0.104,-1.074c0.06,-0.221 0.152,-0.416 0.275,-0.586c0.124,-0.17 0.389,-0.434 0.792,-0.792c0.602,-0.532 1.005,-0.984 1.212,-1.356s0.311,-0.778 0.311,-1.219c0.001,-0.762 -0.294,-1.412 -0.881,-1.949z" fill="#3D6480"/>
  <rect stroke="null" id="svg_7" height="1.411" width="1.411" fill="#3D6480" y="29.046782" x="35.516"/>
  <path stroke="null" id="svg_8" d="m30.368,33.864213l-25.7,0l0,-17.71958l6.918,0l0,-8.00885l25.699,0l0,9.71073l-6.918,0l0,16.017699l0.001,0zm-1.699,-1.701881l0,-6.346012l-22.3,0l0,6.346012l22.3,0zm-22.3,-14.315819l0,6.770481l22.3,0l0,-6.770481l-16.233,0l-0.85,0l-5.217,0zm29.218,-8.00885l-22.301,0l0,6.306969l22.301,0l0,-6.306969z" fill="#3D6480"/>
 </g>
</svg>